<svg width="812" height="133" viewBox="0 0 812 133" fill="none" xmlns="http://www.w3.org/2000/svg">
<path d="M266.296 63.928C265.272 57.784 260.792 55.096 255.416 55.096C250.04 55.096 246.072 57.912 246.072 61.752C246.072 65.848 249.016 68.024 256.824 70.072C259.768 70.968 262.712 71.608 265.784 72.504C277.432 75.576 284.088 81.336 284.088 91.448C284.088 103.736 272.824 112.568 255.928 112.568C240.568 112.568 228.92 105.4 227 89.784H244.664C245.688 96.056 249.528 99.384 256.056 99.384C262.072 99.384 266.424 96.696 266.424 92.088C266.424 86.968 261.56 85.432 256.952 84.28C253.624 83.256 250.424 82.488 247.096 81.592C235.96 78.52 229.176 72.248 229.176 62.008C229.176 50.488 240.056 42.04 255.416 42.04C271.16 42.04 281.272 49.848 283.064 63.928H266.296Z" fill="#2D3A5D"/>
<path d="M358.453 87.608C355.893 103.736 342.709 112.44 326.965 112.44C307.765 112.44 291.125 99.384 291.125 77.24C291.125 54.968 307.765 42.296 326.965 42.296C342.837 42.296 355.893 51.256 358.197 66.36H341.301C339.125 59.448 333.493 56.376 326.837 56.376C315.829 56.376 309.045 65.592 309.045 77.368C309.045 89.144 315.829 98.36 326.837 98.36C333.493 98.36 339.765 95.16 341.685 87.608H358.453Z" fill="#2D3A5D"/>
<path d="M370.221 19H387.885V55.096C391.597 47.544 397.485 42.296 407.725 42.296C424.749 42.296 431.533 53.56 431.533 70.712V110.392H413.485V75.576C413.485 66.744 411.693 58.168 402.093 58.168C393.517 58.168 388.397 65.848 388.397 81.592V110.392H370.221V19Z" fill="#2D3A5D"/>
<path d="M508.435 90.936C504.339 103.864 492.691 112.568 476.179 112.568C456.083 112.568 441.875 98.36 441.875 77.24C441.875 56.888 456.467 42.168 476.435 42.168C498.323 42.168 509.331 58.296 509.459 78.776C509.459 79.544 509.459 80.952 509.331 82.36H459.155C460.563 91.96 467.219 98.104 476.179 98.104C482.451 98.104 487.827 95.928 490.259 90.936H508.435ZM459.283 70.712H492.051C491.155 63.16 486.419 55.736 476.179 55.736C467.091 55.736 460.819 61.752 459.283 70.712Z" fill="#2D3A5D"/>
<path d="M548.107 42.424C559.371 42.424 565.771 49.336 567.819 54.456H567.947V19H586.635V110.392H567.691V100.92H567.563C565.259 105.528 559.243 112.184 548.363 112.184C530.827 112.184 516.875 98.744 516.875 77.24C516.875 55.864 530.571 42.424 548.107 42.424ZM534.923 77.24C534.923 88.76 540.939 98.232 552.203 98.232C563.979 98.232 569.611 87.992 569.611 77.24C569.611 66.616 563.467 56.504 552.203 56.504C541.067 56.504 534.923 65.848 534.923 77.24Z" fill="#2D3A5D"/>
<path d="M601.209 44.216H619.257V79.032C619.257 87.864 621.049 96.44 630.649 96.44C639.225 96.44 644.345 88.76 644.345 73.016V44.216H662.521V110.392H644.857V99.384C641.145 107.064 635.257 112.312 625.017 112.312C607.993 112.312 601.209 101.048 601.209 83.896V44.216Z" fill="#2D3A5D"/>
<path d="M695.772 19V110.392H677.596V19H695.772Z" fill="#2D3A5D"/>
<path d="M773.31 90.936C769.214 103.864 757.566 112.568 741.054 112.568C720.958 112.568 706.75 98.36 706.75 77.24C706.75 56.888 721.342 42.168 741.31 42.168C763.198 42.168 774.206 58.296 774.334 78.776C774.334 79.544 774.334 80.952 774.206 82.36H724.03C725.438 91.96 732.094 98.104 741.054 98.104C747.326 98.104 752.702 95.928 755.134 90.936H773.31ZM724.158 70.712H756.926C756.03 63.16 751.294 55.736 741.054 55.736C731.966 55.736 725.694 61.752 724.158 70.712Z" fill="#2D3A5D"/>
<path d="M30 109.392V18H62.256C83.12 18 92.848 29.392 92.848 43.6C92.848 56.656 84.272 64.976 73.648 67.536C82.224 69.712 85.168 76.368 88.88 88.656C91.44 97.232 93.36 102.224 96.816 108.368V109.392H85.296C82.096 102.992 79.792 94.416 77.232 87.376C73.776 78.032 70.192 71.248 58.8 71.248H40.752V109.392H30ZM40.752 62.16H62C75.44 62.16 81.968 54.864 81.968 43.6C81.968 35.024 77.36 27.088 61.104 27.088H40.752V62.16Z" fill="#2D3A5D"/>
<path d="M164.561 89.68C160.721 103.248 149.969 110.672 135.249 110.672C115.409 110.672 102.993 96.208 102.993 76.112C102.993 56.528 115.921 41.936 134.865 41.936C157.393 41.936 164.817 59.472 165.329 76.624C165.329 77.392 165.457 78.288 165.457 79.184H112.849C113.745 93.52 122.449 102.224 134.993 102.224C144.337 102.224 151.889 98.128 154.449 89.68H164.561ZM112.977 70.992H155.089C153.937 58.32 147.409 50.256 134.865 50.256C122.449 50.256 114.385 58.704 112.977 70.992Z" fill="#2D3A5D"/>
<path d="M196 79L198.253 80.7773L200.944 79.7831L202.537 82.1695L205.405 82.0557L206.182 84.8177L208.944 85.5954L208.83 88.4625L211.217 90.0557L210.223 92.7473L212 95L210.223 97.2527L211.217 99.9443L208.83 101.537L208.944 104.405L206.182 105.182L205.405 107.944L202.537 107.83L200.944 110.217L198.253 109.223L196 111L193.747 109.223L191.056 110.217L189.463 107.83L186.595 107.944L185.818 105.182L183.056 104.405L183.17 101.537L180.783 99.9443L181.777 97.2527L180 95L181.777 92.7473L180.783 90.0557L183.17 88.4625L183.056 85.5954L185.818 84.8177L186.595 82.0557L189.463 82.1695L191.056 79.7831L193.747 80.7773L196 79Z" fill="#45D56F"/>
<path d="M196 42L198.253 43.7773L200.944 42.7831L202.537 45.1695L205.405 45.0557L206.182 47.8177L208.944 48.5954L208.83 51.4625L211.217 53.0557L210.223 55.7473L212 58L210.223 60.2527L211.217 62.9443L208.83 64.5375L208.944 67.4046L206.182 68.1823L205.405 70.9443L202.537 70.8305L200.944 73.2169L198.253 72.2227L196 74L193.747 72.2227L191.056 73.2169L189.463 70.8305L186.595 70.9443L185.818 68.1823L183.056 67.4046L183.17 64.5375L180.783 62.9443L181.777 60.2527L180 58L181.777 55.7473L180.783 53.0557L183.17 51.4625L183.056 48.5954L185.818 47.8177L186.595 45.0557L189.463 45.1695L191.056 42.7831L193.747 43.7773L196 42Z" fill="#45D56F"/>
</svg>
