<svg width="242" height="219" viewBox="0 0 242 219" fill="none" xmlns="http://www.w3.org/2000/svg">
<rect width="74" height="74" rx="2" transform="matrix(4.37114e-08 1 1 -4.37114e-08 151 126)" fill="white" stroke="#2D3A5D" stroke-width="2"/>
<rect width="74" height="74" rx="2" transform="matrix(4.37114e-08 1 1 -4.37114e-08 142 115)" fill="white" stroke="#2D3A5D" stroke-width="2"/>
<rect width="74" height="74" rx="2" transform="matrix(4.37114e-08 1 1 -4.37114e-08 133 104)" fill="white" stroke="#2D3A5D" stroke-width="2"/>
<rect width="74" height="74" rx="2" transform="matrix(4.37114e-08 1 1 -4.37114e-08 124 93)" fill="white" stroke="#2D3A5D" stroke-width="2"/>
<rect width="74" height="74" rx="2" transform="matrix(4.37114e-08 1 1 -4.37114e-08 115 82)" fill="white" stroke="#2D3A5D" stroke-width="2"/>
<rect width="74" height="74" rx="2" transform="matrix(4.37114e-08 1 1 -4.37114e-08 106 71)" fill="white" stroke="#2D3A5D" stroke-width="2"/>
<rect width="74" height="74" rx="2" transform="matrix(4.37114e-08 1 1 -4.37114e-08 97 60)" fill="white" stroke="#2D3A5D" stroke-width="2"/>
<rect width="74" height="74" rx="2" transform="matrix(4.37114e-08 1 1 -4.37114e-08 88 49)" fill="white" stroke="#2D3A5D" stroke-width="2"/>
<rect width="74" height="74" rx="2" transform="matrix(-1 0 0 1 153 39)" fill="#EBF9E8" stroke="#2D3A5D" stroke-width="2"/>
<rect width="8" height="12" rx="1" transform="matrix(-1 0 0 1 144 34)" fill="#2D3A5D"/>
<rect width="8" height="12" rx="1" transform="matrix(-1 0 0 1 120 34)" fill="#2D3A5D"/>
<rect width="8" height="12" rx="1" transform="matrix(-1 0 0 1 96 34)" fill="#2D3A5D"/>
<path d="M116.5 100C111.022 100 106.525 95.6063 106.043 89.9994C105.995 89.4491 106.448 89 107 89H126C126.552 89 127.005 89.4491 126.957 89.9994C126.475 95.605 121.977 100 116.5 100Z" fill="#2D3A5D"/>
<path d="M121 68.5L123.511 71.0957L123.005 74.6717L126.563 75.2957L128.255 78.4861L131.5 76.9L134.745 78.4861L136.437 75.2957L139.995 74.6717L139.489 71.0957L142 68.5L139.489 65.9043L139.995 62.3283L136.437 61.7043L134.745 58.5139L131.5 60.1L128.255 58.5139L126.563 61.7043L123.005 62.3283L123.511 65.9043L121 68.5Z" fill="#45D56F"/>
<path d="M89 68.5L91.5111 71.0957L91.0053 74.6717L94.5626 75.2957L96.2553 78.4861L99.5 76.9L102.745 78.4861L104.437 75.2957L107.995 74.6717L107.489 71.0957L110 68.5L107.489 65.9043L107.995 62.3283L104.437 61.7043L102.745 58.5139L99.5 60.1L96.2553 58.5139L94.5626 61.7043L91.0053 62.3283L91.5111 65.9043L89 68.5Z" fill="#45D56F"/>
</svg>
