<svg width="242" height="219" viewBox="0 0 242 219" fill="none" xmlns="http://www.w3.org/2000/svg">
<path d="M98 117C98 136.882 81.8823 153 62 153C42.1177 153 26 136.882 26 117V81.451C26 81.2019 26.2019 81 26.451 81H97.549C97.7981 81 98 81.2019 98 81.451V117Z" fill="#BEC5D9" stroke="#2D3A5D" stroke-width="2"/>
<path d="M103 112C103 131.882 86.8823 148 67 148C47.1177 148 31 131.882 31 112V76.451C31 76.2019 31.2019 76 31.451 76H102.549C102.798 76 103 76.2019 103 76.451V112Z" fill="#BEC5D9" stroke="#2D3A5D" stroke-width="2"/>
<path d="M108 107C108 126.882 91.8823 143 72 143C52.1177 143 36 126.882 36 107L36 71.451C36 71.2019 36.2019 71 36.451 71L107.549 71C107.798 71 108 71.2019 108 71.451L108 107Z" fill="white" stroke="#2D3A5D" stroke-width="2"/>
<path d="M67 100.5L64.4889 103.096L64.9947 106.672L61.4374 107.296L59.7447 110.486L56.5 108.9L53.2553 110.486L51.5626 107.296L48.0053 106.672L48.5111 103.096L46 100.5L48.5111 97.9043L48.0053 94.3283L51.5626 93.7043L53.2553 90.5139L56.5 92.1L59.7447 90.5139L61.4374 93.7043L64.9947 94.3283L64.4889 97.9043L67 100.5Z" fill="#45D56F"/>
<path d="M99 100.5L96.4889 103.096L96.9947 106.672L93.4374 107.296L91.7447 110.486L88.5 108.9L85.2553 110.486L83.5626 107.296L80.0053 106.672L80.5111 103.096L78 100.5L80.5111 97.9043L80.0053 94.3283L83.5626 93.7043L85.2553 90.5139L88.5 92.1L91.7447 90.5139L93.4374 93.7043L96.9947 94.3283L96.4889 97.9043L99 100.5Z" fill="#45D56F"/>
<path d="M72 135C78.2909 135 83.451 130.159 83.959 124C84.0043 123.449 83.5523 123 83 123L61 123C60.4477 123 59.9957 123.449 60.0411 124C60.5492 130.158 65.7092 135 72 135Z" fill="#2D3A5D"/>
<rect x="1" y="1" width="72" height="72" rx="1" transform="matrix(4.37114e-08 1 1 -4.37114e-08 144 81)" fill="#BEC5D9" stroke="#2D3A5D" stroke-width="2"/>
<rect x="1" y="1" width="72" height="72" rx="1" transform="matrix(4.37114e-08 1 1 -4.37114e-08 139 76)" fill="#BEC5D9" stroke="#2D3A5D" stroke-width="2"/>
<rect x="-1" y="1" width="72" height="72" rx="1" transform="matrix(-1 0 0 1 206 71)" fill="white" stroke="#2D3A5D" stroke-width="2"/>
<rect width="8" height="12" rx="1" transform="matrix(-1 0 0 1 199 66)" fill="#2D3A5D"/>
<rect width="8" height="12" rx="1" transform="matrix(-1 0 0 1 175 66)" fill="#2D3A5D"/>
<rect width="8" height="12" rx="1" transform="matrix(-1 0 0 1 151 66)" fill="#2D3A5D"/>
<rect width="8" height="12" rx="1" transform="matrix(-1 0 0 1 100 65)" fill="#2D3A5D"/>
<rect width="8" height="12" rx="1" transform="matrix(-1 0 0 1 76 65)" fill="#2D3A5D"/>
<rect width="8" height="12" rx="1" transform="matrix(-1 0 0 1 52 65)" fill="#2D3A5D"/>
<path d="M171.5 132C166.022 132 161.525 127.606 161.043 121.999C160.995 121.449 161.448 121 162 121H181C181.552 121 182.005 121.449 181.957 121.999C181.475 127.605 176.977 132 171.5 132Z" fill="#2D3A5D"/>
<path d="M176 100.5L178.511 103.096L178.005 106.672L181.563 107.296L183.255 110.486L186.5 108.9L189.745 110.486L191.437 107.296L194.995 106.672L194.489 103.096L197 100.5L194.489 97.9043L194.995 94.3283L191.437 93.7043L189.745 90.5139L186.5 92.1L183.255 90.5139L181.563 93.7043L178.005 94.3283L178.511 97.9043L176 100.5Z" fill="#45D56F"/>
<path d="M144 100.5L146.511 103.096L146.005 106.672L149.563 107.296L151.255 110.486L154.5 108.9L157.745 110.486L159.437 107.296L162.995 106.672L162.489 103.096L165 100.5L162.489 97.9043L162.995 94.3283L159.437 93.7043L157.745 90.5139L154.5 92.1L151.255 90.5139L149.563 93.7043L146.005 94.3283L146.511 97.9043L144 100.5Z" fill="#45D56F"/>
</svg>
