<svg width="242" height="219" viewBox="0 0 242 219" fill="none" xmlns="http://www.w3.org/2000/svg">
<g clip-path="url(#clip0_42_4172)">
<rect width="242" height="219" rx="10" fill="#45D56F"/>
<path d="M162 117V81.451C162 81.2019 161.798 81 161.549 81H90.451C90.2019 81 90 81.2019 90 81.451V117C90 136.882 106.118 153 126 153C145.882 153 162 136.882 162 117Z" fill="#45D56F" stroke="#2D3A5D" stroke-width="2"/>
<path d="M157 112V76.451C157 76.2019 156.798 76 156.549 76H85.451C85.2019 76 85 76.2019 85 76.451V112C85 131.882 101.118 148 121 148C140.882 148 157 131.882 157 112Z" fill="#45D56F" stroke="#2D3A5D" stroke-width="2"/>
<path d="M152 107V71.451C152 71.2019 151.798 71 151.549 71H80.451C80.2019 71 80 71.2019 80 71.451V107C80 126.882 96.1178 143 116 143C135.882 143 152 126.882 152 107Z" fill="white" stroke="#2D3A5D" stroke-width="2"/>
<path d="M121 100.5L123.511 103.096L123.005 106.672L126.563 107.296L128.255 110.486L131.5 108.9L134.745 110.486L136.437 107.296L139.995 106.672L139.489 103.096L142 100.5L139.489 97.9043L139.995 94.3283L136.437 93.7043L134.745 90.5139L131.5 92.1L128.255 90.5139L126.563 93.7043L123.005 94.3283L123.511 97.9043L121 100.5Z" fill="#45D56F"/>
<path d="M89 100.5L91.5111 103.096L91.0053 106.672L94.5626 107.296L96.2553 110.486L99.5 108.9L102.745 110.486L104.437 107.296L107.995 106.672L107.489 103.096L110 100.5L107.489 97.9043L107.995 94.3283L104.437 93.7043L102.745 90.5139L99.5 92.1L96.2553 90.5139L94.5626 93.7043L91.0053 94.3283L91.5111 97.9043L89 100.5Z" fill="#45D56F"/>
<path d="M116 135C109.709 135 104.549 130.159 104.041 124C103.996 123.449 104.448 123 105 123L127 123C127.552 123 128.004 123.449 127.959 124C127.451 130.158 122.291 135 116 135Z" fill="#2D3A5D"/>
<rect x="88" y="65" width="8" height="12" rx="1" fill="#2D3A5D"/>
<rect x="112" y="65" width="8" height="12" rx="1" fill="#2D3A5D"/>
<rect x="136" y="65" width="8" height="12" rx="1" fill="#2D3A5D"/>
</g>
<defs>
<clipPath id="clip0_42_4172">
<rect width="242" height="219" fill="white"/>
</clipPath>
</defs>
</svg>
