<svg width="1528" height="451" viewBox="0 0 1528 451" fill="none" xmlns="http://www.w3.org/2000/svg">
<g clip-path="url(#clip0_42_4123)">
<rect x="771" y="231" width="242" height="219" rx="10" fill="#2D3A5D"/>
<rect width="74" height="74" rx="2" transform="matrix(4.37114e-08 1 1 -4.37114e-08 929 349)" fill="#EBF9E8" stroke="#2D3A5D" stroke-width="2"/>
<rect width="74" height="74" rx="2" transform="matrix(4.37114e-08 1 1 -4.37114e-08 920 338)" fill="#EBF9E8" stroke="#2D3A5D" stroke-width="2"/>
<rect width="74" height="74" rx="2" transform="matrix(4.37114e-08 1 1 -4.37114e-08 911 327)" fill="#EBF9E8" stroke="#2D3A5D" stroke-width="2"/>
<rect width="74" height="74" rx="2" transform="matrix(4.37114e-08 1 1 -4.37114e-08 902 316)" fill="#EBF9E8" stroke="#2D3A5D" stroke-width="2"/>
<rect width="74" height="74" rx="2" transform="matrix(-1 0 0 1 967 306)" fill="white" stroke="#2D3A5D" stroke-width="2"/>
<rect width="8" height="12" rx="1" transform="matrix(-1 0 0 1 958 301)" fill="#2D3A5D"/>
<rect width="8" height="12" rx="1" transform="matrix(-1 0 0 1 934 301)" fill="#2D3A5D"/>
<rect width="8" height="12" rx="1" transform="matrix(-1 0 0 1 910 301)" fill="#2D3A5D"/>
<path d="M930.5 367C925.022 367 920.525 362.606 920.043 356.999C919.995 356.449 920.448 356 921 356H940C940.552 356 941.005 356.449 940.957 356.999C940.475 362.605 935.977 367 930.5 367Z" fill="#2D3A5D"/>
<path d="M935 335.5L937.511 338.096L937.005 341.672L940.563 342.296L942.255 345.486L945.5 343.9L948.745 345.486L950.437 342.296L953.995 341.672L953.489 338.096L956 335.5L953.489 332.904L953.995 329.328L950.437 328.704L948.745 325.514L945.5 327.1L942.255 325.514L940.563 328.704L937.005 329.328L937.511 332.904L935 335.5Z" fill="#45D56F"/>
<path d="M903 335.5L905.511 338.096L905.005 341.672L908.563 342.296L910.255 345.486L913.5 343.9L916.745 345.486L918.437 342.296L921.995 341.672L921.489 338.096L924 335.5L921.489 332.904L921.995 329.328L918.437 328.704L916.745 325.514L913.5 327.1L910.255 325.514L908.563 328.704L905.005 329.328L905.511 332.904L903 335.5Z" fill="#45D56F"/>
<rect width="74" height="74" rx="2" transform="matrix(-1.31134e-07 -1 -1 1.31134e-07 854 343)" fill="#EBF9E8" stroke="#2D3A5D" stroke-width="2"/>
<rect width="74" height="74" rx="2" transform="matrix(-1.31134e-07 -1 -1 1.31134e-07 863 354)" fill="#EBF9E8" stroke="#2D3A5D" stroke-width="2"/>
<rect width="74" height="74" rx="2" transform="matrix(-1.31134e-07 -1 -1 1.31134e-07 872 365)" fill="#EBF9E8" stroke="#2D3A5D" stroke-width="2"/>
<rect width="74" height="74" rx="2" transform="matrix(-1 1.74846e-07 1.74846e-07 1 881 306)" fill="white" stroke="#2D3A5D" stroke-width="2"/>
<rect width="8" height="12" rx="1" transform="matrix(-1 1.74846e-07 1.74846e-07 1 872 301)" fill="#2D3A5D"/>
<rect width="8" height="12" rx="1" transform="matrix(-1 1.74846e-07 1.74846e-07 1 848 301)" fill="#2D3A5D"/>
<rect width="8" height="12" rx="1" transform="matrix(-1 1.74846e-07 1.74846e-07 1 824 301)" fill="#2D3A5D"/>
<path d="M844.5 367C839.022 367 834.525 362.606 834.043 356.999C833.995 356.449 834.448 356 835 356L854 356C854.552 356 855.005 356.449 854.957 356.999C854.475 362.605 849.977 367 844.5 367Z" fill="#2D3A5D"/>
<path d="M849 335.5L851.511 338.096L851.005 341.672L854.563 342.296L856.255 345.486L859.5 343.9L862.745 345.486L864.437 342.296L867.995 341.672L867.489 338.096L870 335.5L867.489 332.904L867.995 329.328L864.437 328.704L862.745 325.514L859.5 327.1L856.255 325.514L854.563 328.704L851.005 329.328L851.511 332.904L849 335.5Z" fill="#45D56F"/>
<path d="M817 335.5L819.511 338.096L819.005 341.672L822.563 342.296L824.255 345.486L827.5 343.9L830.745 345.486L832.437 342.296L835.995 341.672L835.489 338.096L838 335.5L835.489 332.904L835.995 329.328L832.437 328.704L830.745 325.514L827.5 327.1L824.255 325.514L822.563 328.704L819.005 329.328L819.511 332.904L817 335.5Z" fill="#45D56F"/>
</g>
<g clip-path="url(#clip1_42_4123)">
<rect x="100" width="242" height="219" rx="10" fill="#45D56F"/>
</g>
<path d="M280 140C299.882 140 316 123.882 316 104C316 84.1177 299.882 68 280 68L244.451 68C244.202 68 244 68.2019 244 68.451L244 139.549C244 139.798 244.202 140 244.451 140L280 140Z" fill="#45D56F" stroke="#2D3A5D" stroke-width="2"/>
<path d="M275 145C294.882 145 311 128.882 311 109C311 89.1177 294.882 73 275 73L239.451 73C239.202 73 239 73.2019 239 73.451L239 144.549C239 144.798 239.202 145 239.451 145L275 145Z" fill="#45D56F" stroke="#2D3A5D" stroke-width="2"/>
<path d="M270 150C289.882 150 306 133.882 306 114C306 94.1177 289.882 78 270 78L234.451 78C234.202 78 234 78.2019 234 78.451L234 149.549C234 149.798 234.202 150 234.451 150L270 150Z" fill="white" stroke="#2D3A5D" stroke-width="2"/>
<g clip-path="url(#clip2_42_4123)">
<rect x="866" width="242" height="219" rx="10" fill="#45D56F"/>
<path d="M1016.39 123.782C1030.45 109.723 1030.45 86.9289 1016.39 72.87C1002.33 58.8112 979.535 58.8112 965.477 72.87L940.34 98.007C940.163 98.1831 940.163 98.4686 940.34 98.6448L990.614 148.919C990.79 149.095 991.075 149.095 991.251 148.919L1016.39 123.782Z" fill="#45D56F" stroke="#2D3A5D" stroke-width="2"/>
<path d="M1016.39 130.853C1030.45 116.794 1030.45 94 1016.39 79.9411C1002.33 65.8823 979.535 65.8823 965.477 79.9411L940.34 105.078C940.163 105.254 940.163 105.54 940.34 105.716L990.614 155.99C990.79 156.166 991.075 156.166 991.251 155.99L1016.39 130.853Z" fill="#45D56F" stroke="#2D3A5D" stroke-width="2"/>
<path d="M1016.39 137.924C1030.45 123.865 1030.45 101.071 1016.39 87.0122C1002.33 72.9533 979.535 72.9533 965.477 87.0122L940.34 112.149C940.163 112.325 940.163 112.611 940.34 112.787L990.614 163.061C990.79 163.237 991.075 163.237 991.251 163.061L1016.39 137.924Z" fill="white" stroke="#2D3A5D" stroke-width="2"/>
<path d="M982.801 113.529L982.861 109.918L985.747 107.747L983.673 104.79L984.732 101.337L981.316 100.164L980.143 96.7485L976.69 97.8075L973.734 95.7333L971.563 98.6196L967.952 98.6794L967.892 102.291L965.005 104.462L967.08 107.418L966.021 110.871L969.437 112.044L970.609 115.46L974.062 114.401L977.019 116.475L979.19 113.589L982.801 113.529Z" fill="#45D56F"/>
<path d="M1005.43 136.156L1005.49 132.545L1008.37 130.374L1006.3 127.417L1007.36 123.965L1003.94 122.792L1002.77 119.376L999.317 120.435L996.361 118.361L994.19 121.247L990.579 121.307L990.519 124.918L987.633 127.089L989.707 130.045L988.648 133.498L992.064 134.671L993.237 138.087L996.689 137.028L999.646 139.102L1001.82 136.216L1005.43 136.156Z" fill="#45D56F"/>
<path d="M1010.73 92.6691C1015.18 97.1174 1015.41 104.189 1011.41 108.904C1011.05 109.325 1010.41 109.323 1010.02 108.933L994.468 93.3762C994.078 92.9857 994.076 92.3483 994.497 91.9912C999.211 87.9958 1006.28 88.2208 1010.73 92.6691Z" fill="#2D3A5D"/>
<rect x="981.033" y="161.966" width="8" height="12" rx="1" transform="rotate(-135 981.033 161.966)" fill="#2D3A5D"/>
<rect x="964.062" y="144.995" width="8" height="12" rx="1" transform="rotate(-135 964.062 144.995)" fill="#2D3A5D"/>
<rect x="947.092" y="128.024" width="8" height="12" rx="1" transform="rotate(-135 947.092 128.024)" fill="#2D3A5D"/>
</g>
<g clip-path="url(#clip3_42_4123)">
<rect x="512" y="230" width="242" height="219" rx="10" fill="#45D56F"/>
<path d="M602 347C602 366.882 618.118 383 638 383C657.882 383 674 366.882 674 347V311.451C674 311.202 673.798 311 673.549 311H602.451C602.202 311 602 311.202 602 311.451V347Z" fill="#45D56F" stroke="#2D3A5D" stroke-width="2"/>
<path d="M597 342C597 361.882 613.118 378 633 378C652.882 378 669 361.882 669 342V306.451C669 306.202 668.798 306 668.549 306H597.451C597.202 306 597 306.202 597 306.451V342Z" fill="#45D56F" stroke="#2D3A5D" stroke-width="2"/>
<path d="M592 337C592 356.882 608.118 373 628 373C647.882 373 664 356.882 664 337V301.451C664 301.202 663.798 301 663.549 301H592.451C592.202 301 592 301.202 592 301.451V337Z" fill="white" stroke="#2D3A5D" stroke-width="2"/>
<path d="M633 330.5L635.511 333.096L635.005 336.672L638.563 337.296L640.255 340.486L643.5 338.9L646.745 340.486L648.437 337.296L651.995 336.672L651.489 333.096L654 330.5L651.489 327.904L651.995 324.328L648.437 323.704L646.745 320.514L643.5 322.1L640.255 320.514L638.563 323.704L635.005 324.328L635.511 327.904L633 330.5Z" fill="#45D56F"/>
<path d="M601 330.5L603.511 333.096L603.005 336.672L606.563 337.296L608.255 340.486L611.5 338.9L614.745 340.486L616.437 337.296L619.995 336.672L619.489 333.096L622 330.5L619.489 327.904L619.995 324.328L616.437 323.704L614.745 320.514L611.5 322.1L608.255 320.514L606.563 323.704L603.005 324.328L603.511 327.904L601 330.5Z" fill="#45D56F"/>
<path d="M628 365C621.709 365 616.549 360.16 616.041 354C615.996 353.449 616.448 353 617 353L639 353C639.552 353 640.004 353.449 639.959 354C639.451 360.158 634.291 365 628 365Z" fill="#2D3A5D"/>
<rect x="600" y="295" width="8" height="12" rx="1" fill="#2D3A5D"/>
<rect x="624" y="295" width="8" height="12" rx="1" fill="#2D3A5D"/>
<rect x="648" y="295" width="8" height="12" rx="1" fill="#2D3A5D"/>
</g>
<rect x="1029" y="230" width="242" height="219" rx="10" fill="#45D56F"/>
<rect x="1201.09" y="332.16" width="74" height="74" rx="2" transform="rotate(120 1201.09 332.16)" fill="#45D56F" stroke="#2D3A5D" stroke-width="2"/>
<rect x="1208.78" y="330.83" width="74" height="74" rx="2" transform="rotate(120 1208.78 330.83)" fill="#45D56F" stroke="#2D3A5D" stroke-width="2"/>
<rect x="1151.53" y="292" width="74" height="74" rx="2" transform="rotate(30 1151.53 292)" fill="white" stroke="#2D3A5D" stroke-width="2"/>
<rect x="1161.82" y="292.17" width="8" height="12" rx="1" transform="rotate(30 1161.82 292.17)" fill="#2D3A5D"/>
<rect x="1182.61" y="304.17" width="8" height="12" rx="1" transform="rotate(30 1182.61 304.17)" fill="#2D3A5D"/>
<rect x="1203.39" y="316.17" width="8" height="12" rx="1" transform="rotate(30 1203.39 316.17)" fill="#2D3A5D"/>
<path d="M1152.64 363.078C1157.38 365.816 1163.47 364.26 1166.69 359.645C1167.01 359.193 1166.84 358.577 1166.36 358.301L1149.91 348.801C1149.43 348.525 1148.81 348.688 1148.58 349.188C1146.19 354.284 1147.89 360.339 1152.64 363.078Z" fill="#2D3A5D"/>
<path d="M1164.49 333.548L1161.02 334.54L1159.67 337.89L1156.27 336.652L1153.21 338.568L1151.2 335.572L1147.59 335.324L1147.72 331.714L1144.95 329.395L1147.18 326.551L1146.3 323.048L1149.78 322.055L1151.13 318.706L1154.52 319.944L1157.58 318.027L1159.6 321.023L1163.2 321.272L1163.07 324.881L1165.84 327.2L1163.61 330.044L1164.49 333.548Z" fill="#45D56F"/>
<path d="M1192.2 349.548L1188.73 350.54L1187.38 353.89L1183.99 352.652L1180.93 354.568L1178.91 351.572L1175.31 351.324L1175.44 347.714L1172.67 345.395L1174.89 342.551L1174.02 339.048L1177.49 338.055L1178.84 334.706L1182.23 335.944L1185.29 334.027L1187.31 337.023L1190.91 337.272L1190.78 340.881L1193.55 343.2L1191.33 346.044L1192.2 349.548Z" fill="#45D56F"/>
<path d="M263.5 109L266.096 106.489L269.672 106.995L270.296 103.437L273.486 101.745L271.9 98.5L273.486 95.2553L270.296 93.5626L269.672 90.0053L266.096 90.5111L263.5 88L260.904 90.5111L257.328 90.0053L256.704 93.5626L253.514 95.2553L255.1 98.5L253.514 101.745L256.704 103.437L257.328 106.995L260.904 106.489L263.5 109Z" fill="#45D56F"/>
<path d="M263.5 141L266.096 138.489L269.672 138.995L270.296 135.437L273.486 133.745L271.9 130.5L273.486 127.255L270.296 125.563L269.672 122.005L266.096 122.511L263.5 120L260.904 122.511L257.328 122.005L256.704 125.563L253.514 127.255L255.1 130.5L253.514 133.745L256.704 135.437L257.328 138.995L260.904 138.489L263.5 141Z" fill="#45D56F"/>
<path d="M298 114C298 120.291 293.159 125.451 287 125.959C286.449 126.004 286 125.552 286 125L286 103C286 102.448 286.449 101.996 287 102.041C293.158 102.549 298 107.709 298 114Z" fill="#2D3A5D"/>
<rect x="206" y="140" width="72" height="72" rx="1" transform="rotate(-180 206 140)" fill="#45D56F" stroke="#2D3A5D" stroke-width="2"/>
<rect x="211" y="145" width="72" height="72" rx="1" transform="rotate(-180 211 145)" fill="#45D56F" stroke="#2D3A5D" stroke-width="2"/>
<rect x="216" y="78" width="72" height="72" rx="1" transform="rotate(90 216 78)" fill="white" stroke="#2D3A5D" stroke-width="2"/>
<rect x="222" y="86" width="8" height="12" rx="1" transform="rotate(90 222 86)" fill="#2D3A5D"/>
<rect x="222" y="110" width="8" height="12" rx="1" transform="rotate(90 222 110)" fill="#2D3A5D"/>
<rect x="222" y="134" width="8" height="12" rx="1" transform="rotate(90 222 134)" fill="#2D3A5D"/>
<rect x="228" y="142" width="8" height="12" rx="1" transform="rotate(-90 228 142)" fill="#2D3A5D"/>
<rect x="228" y="118" width="8" height="12" rx="1" transform="rotate(-90 228 118)" fill="#2D3A5D"/>
<rect x="228" y="94" width="8" height="12" rx="1" transform="rotate(-90 228 94)" fill="#2D3A5D"/>
<path d="M156 113.5C156 118.978 160.394 123.475 166.001 123.957C166.551 124.005 167 123.552 167 123L167 104C167 103.448 166.551 102.995 166.001 103.043C160.395 103.525 156 108.023 156 113.5Z" fill="#2D3A5D"/>
<path d="M187.5 109L184.904 106.489L181.328 106.995L180.704 103.437L177.514 101.745L179.1 98.5L177.514 95.2553L180.704 93.5626L181.328 90.0053L184.904 90.5111L187.5 88L190.096 90.5111L193.672 90.0053L194.296 93.5626L197.486 95.2553L195.9 98.5L197.486 101.745L194.296 103.437L193.672 106.995L190.096 106.489L187.5 109Z" fill="#45D56F"/>
<path d="M187.5 141L184.904 138.489L181.328 138.995L180.704 135.437L177.514 133.745L179.1 130.5L177.514 127.255L180.704 125.563L181.328 122.005L184.904 122.511L187.5 120L190.096 122.511L193.672 122.005L194.296 125.563L197.486 127.255L195.9 130.5L197.486 133.745L194.296 135.437L193.672 138.995L190.096 138.489L187.5 141Z" fill="#45D56F"/>
<g clip-path="url(#clip4_42_4123)">
<rect x="613" y="1" width="242" height="219" rx="10" fill="#BEC5D9"/>
</g>
<path d="M711 118C711 137.882 694.882 154 675 154C655.118 154 639 137.882 639 118V82.451C639 82.2019 639.202 82 639.451 82H710.549C710.798 82 711 82.2019 711 82.451V118Z" fill="#BEC5D9" stroke="#2D3A5D" stroke-width="2"/>
<path d="M716 113C716 132.882 699.882 149 680 149C660.118 149 644 132.882 644 113V77.451C644 77.2019 644.202 77 644.451 77H715.549C715.798 77 716 77.2019 716 77.451V113Z" fill="#BEC5D9" stroke="#2D3A5D" stroke-width="2"/>
<path d="M721 108C721 127.882 704.882 144 685 144C665.118 144 649 127.882 649 108V72.451C649 72.2019 649.202 72 649.451 72L720.549 72C720.798 72 721 72.2019 721 72.451V108Z" fill="white" stroke="#2D3A5D" stroke-width="2"/>
<path d="M680 101.5L677.489 104.096L677.995 107.672L674.437 108.296L672.745 111.486L669.5 109.9L666.255 111.486L664.563 108.296L661.005 107.672L661.511 104.096L659 101.5L661.511 98.9043L661.005 95.3283L664.563 94.7043L666.255 91.5139L669.5 93.1L672.745 91.5139L674.437 94.7043L677.995 95.3283L677.489 98.9043L680 101.5Z" fill="#45D56F"/>
<path d="M712 101.5L709.489 104.096L709.995 107.672L706.437 108.296L704.745 111.486L701.5 109.9L698.255 111.486L696.563 108.296L693.005 107.672L693.511 104.096L691 101.5L693.511 98.9043L693.005 95.3283L696.563 94.7043L698.255 91.5139L701.5 93.1L704.745 91.5139L706.437 94.7043L709.995 95.3283L709.489 98.9043L712 101.5Z" fill="#45D56F"/>
<path d="M685 136C691.291 136 696.451 131.159 696.959 125C697.004 124.449 696.552 124 696 124L674 124C673.448 124 672.996 124.449 673.041 125C673.549 131.158 678.709 136 685 136Z" fill="#2D3A5D"/>
<rect x="1" y="1" width="72" height="72" rx="1" transform="matrix(4.37114e-08 1 1 -4.37114e-08 757 82)" fill="#BEC5D9" stroke="#2D3A5D" stroke-width="2"/>
<rect x="1" y="1" width="72" height="72" rx="1" transform="matrix(4.37114e-08 1 1 -4.37114e-08 752 77)" fill="#BEC5D9" stroke="#2D3A5D" stroke-width="2"/>
<rect x="-1" y="1" width="72" height="72" rx="1" transform="matrix(-1 0 0 1 819 72)" fill="white" stroke="#2D3A5D" stroke-width="2"/>
<rect width="8" height="12" rx="1" transform="matrix(-1 0 0 1 812 67)" fill="#2D3A5D"/>
<rect width="8" height="12" rx="1" transform="matrix(-1 0 0 1 788 67)" fill="#2D3A5D"/>
<rect width="8" height="12" rx="1" transform="matrix(-1 0 0 1 764 67)" fill="#2D3A5D"/>
<rect width="8" height="12" rx="1" transform="matrix(-1 0 0 1 713 66)" fill="#2D3A5D"/>
<rect width="8" height="12" rx="1" transform="matrix(-1 0 0 1 689 66)" fill="#2D3A5D"/>
<rect width="8" height="12" rx="1" transform="matrix(-1 0 0 1 665 66)" fill="#2D3A5D"/>
<path d="M784.5 133C779.022 133 774.525 128.606 774.043 122.999C773.995 122.449 774.448 122 775 122H794C794.552 122 795.005 122.449 794.957 122.999C794.475 128.605 789.977 133 784.5 133Z" fill="#2D3A5D"/>
<path d="M789 101.5L791.511 104.096L791.005 107.672L794.563 108.296L796.255 111.486L799.5 109.9L802.745 111.486L804.437 108.296L807.995 107.672L807.489 104.096L810 101.5L807.489 98.9043L807.995 95.3283L804.437 94.7043L802.745 91.5139L799.5 93.1L796.255 91.5139L794.563 94.7043L791.005 95.3283L791.511 98.9043L789 101.5Z" fill="#45D56F"/>
<path d="M757 101.5L759.511 104.096L759.005 107.672L762.563 108.296L764.255 111.486L767.5 109.9L770.745 111.486L772.437 108.296L775.995 107.672L775.489 104.096L778 101.5L775.489 98.9043L775.995 95.3283L772.437 94.7043L770.745 91.5139L767.5 93.1L764.255 91.5139L762.563 94.7043L759.005 95.3283L759.511 98.9043L757 101.5Z" fill="#45D56F"/>
<rect x="359" width="242" height="219" rx="10" fill="#2D3A5D"/>
<rect x="450" y="126" width="74" height="74" rx="2" transform="rotate(90 450 126)" fill="#EBF9E8" stroke="#2D3A5D" stroke-width="2"/>
<rect x="459" y="115" width="74" height="74" rx="2" transform="rotate(90 459 115)" fill="#EBF9E8" stroke="#2D3A5D" stroke-width="2"/>
<rect x="468" y="104" width="74" height="74" rx="2" transform="rotate(90 468 104)" fill="#EBF9E8" stroke="#2D3A5D" stroke-width="2"/>
<rect x="477" y="93" width="74" height="74" rx="2" transform="rotate(90 477 93)" fill="#EBF9E8" stroke="#2D3A5D" stroke-width="2"/>
<rect x="486" y="82" width="74" height="74" rx="2" transform="rotate(90 486 82)" fill="#EBF9E8" stroke="#2D3A5D" stroke-width="2"/>
<rect x="495" y="71" width="74" height="74" rx="2" transform="rotate(90 495 71)" fill="#EBF9E8" stroke="#2D3A5D" stroke-width="2"/>
<rect x="504" y="60" width="74" height="74" rx="2" transform="rotate(90 504 60)" fill="#EBF9E8" stroke="#2D3A5D" stroke-width="2"/>
<rect x="513" y="49" width="74" height="74" rx="2" transform="rotate(90 513 49)" fill="#EBF9E8" stroke="#2D3A5D" stroke-width="2"/>
<rect x="448" y="39" width="74" height="74" rx="2" fill="white" stroke="#2D3A5D" stroke-width="2"/>
<rect x="457" y="34" width="8" height="12" rx="1" fill="#2D3A5D"/>
<rect x="481" y="34" width="8" height="12" rx="1" fill="#2D3A5D"/>
<rect x="505" y="34" width="8" height="12" rx="1" fill="#2D3A5D"/>
<path d="M484.5 100C489.978 100 494.475 95.6063 494.957 89.9994C495.005 89.4491 494.552 89 494 89H475C474.448 89 473.995 89.4491 474.043 89.9994C474.525 95.605 479.023 100 484.5 100Z" fill="#2D3A5D"/>
<path d="M480 68.5L477.489 71.0957L477.995 74.6717L474.437 75.2957L472.745 78.4861L469.5 76.9L466.255 78.4861L464.563 75.2957L461.005 74.6717L461.511 71.0957L459 68.5L461.511 65.9043L461.005 62.3283L464.563 61.7043L466.255 58.5139L469.5 60.1L472.745 58.5139L474.437 61.7043L477.995 62.3283L477.489 65.9043L480 68.5Z" fill="#45D56F"/>
<path d="M512 68.5L509.489 71.0957L509.995 74.6717L506.437 75.2957L504.745 78.4861L501.5 76.9L498.255 78.4861L496.563 75.2957L493.005 74.6717L493.511 71.0957L491 68.5L493.511 65.9043L493.005 62.3283L496.563 61.7043L498.255 58.5139L501.5 60.1L504.745 58.5139L506.437 61.7043L509.995 62.3283L509.489 65.9043L512 68.5Z" fill="#45D56F"/>
<rect x="254" y="230" width="242" height="219" rx="10" fill="#BEC5D9"/>
<rect x="405" y="310" width="74" height="74" rx="2" transform="rotate(90 405 310)" fill="#EBF9E8" stroke="#2D3A5D" stroke-width="2"/>
<rect x="411" y="305" width="74" height="74" rx="2" transform="rotate(90 411 305)" fill="#EBF9E8" stroke="#2D3A5D" stroke-width="2"/>
<rect x="342" y="300" width="74" height="74" rx="2" fill="white" stroke="#2D3A5D" stroke-width="2"/>
<rect x="351" y="295" width="8" height="12" rx="1" fill="#2D3A5D"/>
<rect x="375" y="295" width="8" height="12" rx="1" fill="#2D3A5D"/>
<rect x="399" y="295" width="8" height="12" rx="1" fill="#2D3A5D"/>
<path d="M378.5 361C383.978 361 388.475 356.606 388.957 350.999C389.005 350.449 388.552 350 388 350H369C368.448 350 367.995 350.449 368.043 350.999C368.525 356.605 373.023 361 378.5 361Z" fill="#2D3A5D"/>
<path d="M374 329.5L371.489 332.096L371.995 335.672L368.437 336.296L366.745 339.486L363.5 337.9L360.255 339.486L358.563 336.296L355.005 335.672L355.511 332.096L353 329.5L355.511 326.904L355.005 323.328L358.563 322.704L360.255 319.514L363.5 321.1L366.745 319.514L368.437 322.704L371.995 323.328L371.489 326.904L374 329.5Z" fill="#45D56F"/>
<path d="M406 329.5L403.489 332.096L403.995 335.672L400.437 336.296L398.745 339.486L395.5 337.9L392.255 339.486L390.563 336.296L387.005 335.672L387.511 332.096L385 329.5L387.511 326.904L387.005 323.328L390.563 322.704L392.255 319.514L395.5 321.1L398.745 319.514L400.437 322.704L403.995 323.328L403.489 326.904L406 329.5Z" fill="#45D56F"/>
<rect x="1119" width="242" height="219" rx="10" fill="#BEC5D9"/>
<rect x="1270" y="80" width="74" height="74" rx="2" transform="rotate(90 1270 80)" fill="#EBF9E8" stroke="#2D3A5D" stroke-width="2"/>
<rect x="1276" y="75" width="74" height="74" rx="2" transform="rotate(90 1276 75)" fill="#EBF9E8" stroke="#2D3A5D" stroke-width="2"/>
<rect x="1207" y="70" width="74" height="74" rx="2" fill="white" stroke="#2D3A5D" stroke-width="2"/>
<rect x="1216" y="65" width="8" height="12" rx="1" fill="#2D3A5D"/>
<rect x="1240" y="65" width="8" height="12" rx="1" fill="#2D3A5D"/>
<rect x="1264" y="65" width="8" height="12" rx="1" fill="#2D3A5D"/>
<path d="M1243.5 131C1248.98 131 1253.48 126.606 1253.96 120.999C1254 120.449 1253.55 120 1253 120H1234C1233.45 120 1233 120.449 1233.04 120.999C1233.52 126.605 1238.02 131 1243.5 131Z" fill="#2D3A5D"/>
<path d="M1239 99.5L1236.49 102.096L1236.99 105.672L1233.44 106.296L1231.74 109.486L1228.5 107.9L1225.26 109.486L1223.56 106.296L1220.01 105.672L1220.51 102.096L1218 99.5L1220.51 96.9043L1220.01 93.3283L1223.56 92.7043L1225.26 89.5139L1228.5 91.1L1231.74 89.5139L1233.44 92.7043L1236.99 93.3283L1236.49 96.9043L1239 99.5Z" fill="#45D56F"/>
<path d="M1271 99.5L1268.49 102.096L1268.99 105.672L1265.44 106.296L1263.74 109.486L1260.5 107.9L1257.26 109.486L1255.56 106.296L1252.01 105.672L1252.51 102.096L1250 99.5L1252.51 96.9043L1252.01 93.3283L1255.56 92.7043L1257.26 89.5139L1260.5 91.1L1263.74 89.5139L1265.44 92.7043L1268.99 93.3283L1268.49 96.9043L1271 99.5Z" fill="#45D56F"/>
<rect width="242" height="219" rx="10" transform="matrix(-1 0 0 1 1528 232)" fill="#EBF9E8"/>
<rect width="74" height="74" rx="2" transform="matrix(4.37114e-08 1 1 -4.37114e-08 1437 358)" fill="#EBF9E8" stroke="#2D3A5D" stroke-width="2"/>
<rect width="74" height="74" rx="2" transform="matrix(4.37114e-08 1 1 -4.37114e-08 1428 347)" fill="#EBF9E8" stroke="#2D3A5D" stroke-width="2"/>
<rect width="74" height="74" rx="2" transform="matrix(4.37114e-08 1 1 -4.37114e-08 1419 336)" fill="#EBF9E8" stroke="#2D3A5D" stroke-width="2"/>
<rect width="74" height="74" rx="2" transform="matrix(4.37114e-08 1 1 -4.37114e-08 1410 325)" fill="#EBF9E8" stroke="#2D3A5D" stroke-width="2"/>
<rect width="74" height="74" rx="2" transform="matrix(4.37114e-08 1 1 -4.37114e-08 1401 314)" fill="#EBF9E8" stroke="#2D3A5D" stroke-width="2"/>
<rect width="74" height="74" rx="2" transform="matrix(4.37114e-08 1 1 -4.37114e-08 1392 303)" fill="#EBF9E8" stroke="#2D3A5D" stroke-width="2"/>
<rect width="74" height="74" rx="2" transform="matrix(4.37114e-08 1 1 -4.37114e-08 1383 292)" fill="#EBF9E8" stroke="#2D3A5D" stroke-width="2"/>
<rect width="74" height="74" rx="2" transform="matrix(4.37114e-08 1 1 -4.37114e-08 1374 281)" fill="#EBF9E8" stroke="#2D3A5D" stroke-width="2"/>
<rect width="74" height="74" rx="2" transform="matrix(-1 0 0 1 1439 271)" fill="white" stroke="#2D3A5D" stroke-width="2"/>
<rect width="8" height="12" rx="1" transform="matrix(-1 0 0 1 1430 266)" fill="#2D3A5D"/>
<rect width="8" height="12" rx="1" transform="matrix(-1 0 0 1 1406 266)" fill="#2D3A5D"/>
<rect width="8" height="12" rx="1" transform="matrix(-1 0 0 1 1382 266)" fill="#2D3A5D"/>
<path d="M1402.5 332C1397.02 332 1392.52 327.606 1392.04 321.999C1392 321.449 1392.45 321 1393 321H1412C1412.55 321 1413 321.449 1412.96 321.999C1412.48 327.605 1407.98 332 1402.5 332Z" fill="#2D3A5D"/>
<path d="M1407 300.5L1409.51 303.096L1409.01 306.672L1412.56 307.296L1414.26 310.486L1417.5 308.9L1420.74 310.486L1422.44 307.296L1425.99 306.672L1425.49 303.096L1428 300.5L1425.49 297.904L1425.99 294.328L1422.44 293.704L1420.74 290.514L1417.5 292.1L1414.26 290.514L1412.56 293.704L1409.01 294.328L1409.51 297.904L1407 300.5Z" fill="#45D56F"/>
<path d="M1375 300.5L1377.51 303.096L1377.01 306.672L1380.56 307.296L1382.26 310.486L1385.5 308.9L1388.74 310.486L1390.44 307.296L1393.99 306.672L1393.49 303.096L1396 300.5L1393.49 297.904L1393.99 294.328L1390.44 293.704L1388.74 290.514L1385.5 292.1L1382.26 290.514L1380.56 293.704L1377.01 294.328L1377.51 297.904L1375 300.5Z" fill="#45D56F"/>
<rect width="242" height="219" rx="10" transform="matrix(-1 0 0 1 242 232)" fill="white"/>
<rect width="74" height="74" rx="2" transform="matrix(4.37114e-08 1 1 -4.37114e-08 151 358)" fill="#EBF9E8" stroke="#2D3A5D" stroke-width="2"/>
<rect width="74" height="74" rx="2" transform="matrix(4.37114e-08 1 1 -4.37114e-08 142 347)" fill="#EBF9E8" stroke="#2D3A5D" stroke-width="2"/>
<rect width="74" height="74" rx="2" transform="matrix(4.37114e-08 1 1 -4.37114e-08 133 336)" fill="#EBF9E8" stroke="#2D3A5D" stroke-width="2"/>
<rect width="74" height="74" rx="2" transform="matrix(4.37114e-08 1 1 -4.37114e-08 124 325)" fill="#EBF9E8" stroke="#2D3A5D" stroke-width="2"/>
<rect width="74" height="74" rx="2" transform="matrix(4.37114e-08 1 1 -4.37114e-08 115 314)" fill="#EBF9E8" stroke="#2D3A5D" stroke-width="2"/>
<rect width="74" height="74" rx="2" transform="matrix(4.37114e-08 1 1 -4.37114e-08 106 303)" fill="#EBF9E8" stroke="#2D3A5D" stroke-width="2"/>
<rect width="74" height="74" rx="2" transform="matrix(4.37114e-08 1 1 -4.37114e-08 97 292)" fill="#EBF9E8" stroke="#2D3A5D" stroke-width="2"/>
<rect width="74" height="74" rx="2" transform="matrix(4.37114e-08 1 1 -4.37114e-08 88 281)" fill="#EBF9E8" stroke="#2D3A5D" stroke-width="2"/>
<rect width="74" height="74" rx="2" transform="matrix(-1 0 0 1 153 271)" fill="white" stroke="#2D3A5D" stroke-width="2"/>
<rect width="8" height="12" rx="1" transform="matrix(-1 0 0 1 144 266)" fill="#2D3A5D"/>
<rect width="8" height="12" rx="1" transform="matrix(-1 0 0 1 120 266)" fill="#2D3A5D"/>
<rect width="8" height="12" rx="1" transform="matrix(-1 0 0 1 96 266)" fill="#2D3A5D"/>
<path d="M116.5 332C111.022 332 106.525 327.606 106.043 321.999C105.995 321.449 106.448 321 107 321H126C126.552 321 127.005 321.449 126.957 321.999C126.475 327.605 121.977 332 116.5 332Z" fill="#2D3A5D"/>
<path d="M121 300.5L123.511 303.096L123.005 306.672L126.563 307.296L128.255 310.486L131.5 308.9L134.745 310.486L136.437 307.296L139.995 306.672L139.489 303.096L142 300.5L139.489 297.904L139.995 294.328L136.437 293.704L134.745 290.514L131.5 292.1L128.255 290.514L126.563 293.704L123.005 294.328L123.511 297.904L121 300.5Z" fill="#45D56F"/>
<path d="M89 300.5L91.5111 303.096L91.0053 306.672L94.5626 307.296L96.2553 310.486L99.5 308.9L102.745 310.486L104.437 307.296L107.995 306.672L107.489 303.096L110 300.5L107.489 297.904L107.995 294.328L104.437 293.704L102.745 290.514L99.5 292.1L96.2553 290.514L94.5626 293.704L91.0053 294.328L91.5111 297.904L89 300.5Z" fill="#45D56F"/>
<defs>
<clipPath id="clip0_42_4123">
<rect width="242" height="219" fill="white" transform="translate(771 231)"/>
</clipPath>
<clipPath id="clip1_42_4123">
<rect width="242" height="219" fill="white" transform="translate(100)"/>
</clipPath>
<clipPath id="clip2_42_4123">
<rect width="242" height="219" fill="white" transform="translate(866)"/>
</clipPath>
<clipPath id="clip3_42_4123">
<rect width="242" height="219" fill="white" transform="translate(512 230)"/>
</clipPath>
<clipPath id="clip4_42_4123">
<rect width="242" height="219" fill="white" transform="translate(613 1)"/>
</clipPath>
</defs>
</svg>
